# xmcd
#
# Track frame offsets:
#	150
#	16798
#	27838
#	42313
#	51395
#	71670
#	86660
#	102940
#	114470
#	132660
#	147375
#	154718
#	170098
#	183313
#	191348
#	209273
#	228525
#	241418
#	252811
#	268168
#	277659
#	287561
#	301074
#	320320
#	331084
#	335408
#
# Disc length: 4667 seconds
#
# Revision: 1
# Processed by: cddbd v1.5.1PL0 Copyright (c) Steve Scherf et al.
# Submitted via: audiograbber 1.83.01
#
DISCID=7312391a
DTITLE=Well-Buam - 1
DYEAR=1900
DGENRE=Volksmusik
TTITLE0=Maxglaner
TTITLE1=Vogl Greif
TTITLE2=Krebspolka
TTITLE3=Mazurka
TTITLE4=Topporzer Kreuzpolka
TTITLE5=Zwieslerwinklboarischer
TTITLE6=Landler links
TTITLE7=Oide Kath
TTITLE8=Circassian Circle
TTITLE9=Scheißmützenwalzer
TTITLE10=Petronella
TTITLE11=Kuckuckspolka
TTITLE12=Schwedische Maskerade
TTITLE13=Eisenkeilnest
TTITLE14=Woidhansl
TTITLE15=Flaschlwischabolero
TTITLE16=Auftanz
TTITLE17=Jagawalzer
TTITLE18=Korobuschka
TTITLE19=Boarischer fürn Berti
TTITLE20=Leit masts lustig sei
TTITLE21=Mexikanischer Walzer
TTITLE22=Sautanz
TTITLE23=Reits enk zamm
TTITLE24=O sole mio
TTITLE25=Sternpolka
EXTD=
EXTT0=
EXTT1=
EXTT2=
EXTT3=
EXTT4=
EXTT5=
EXTT6=
EXTT7=
EXTT8=
EXTT9=
EXTT10=
EXTT11=
EXTT12=
EXTT13=
EXTT14=
EXTT15=
EXTT16=
EXTT17=
EXTT18=
EXTT19=
EXTT20=
EXTT21=
EXTT22=
EXTT23=
EXTT24=
EXTT25=
PLAYORDER=
